<svg width="206" height="52" viewBox="0 0 206 52" fill="none" xmlns="http://www.w3.org/2000/svg">
<g filter="url(#filter0_dd_1244_128808)">
<rect x="4.1125" y="3.1125" width="43.775" height="43.775" rx="8.8875" fill="white"/>
<rect x="4.1125" y="3.1125" width="43.775" height="43.775" rx="8.8875" fill="url(#paint0_linear_1244_128808)"/>
<g filter="url(#filter1_dd_1244_128808)">
<circle cx="26" cy="25" r="16" fill="url(#paint1_linear_1244_128808)"/>
</g>
<g clip-path="url(#clip0_1244_128808)">
<path d="M25.6919 17C24.9575 17 24.2531 17.2918 23.7338 17.8111C23.2144 18.3304 22.9227 19.0348 22.9227 19.7692V30.2308C22.9227 30.9652 23.2144 31.6696 23.7338 32.1889C24.2531 32.7082 24.9575 33 25.6919 33C26.4263 33 27.1307 32.7082 27.65 32.1889C28.1694 31.6696 28.4611 30.9652 28.4611 30.2308V19.7692C28.4611 19.0348 28.1694 18.3304 27.65 17.8111C27.1307 17.2918 26.4263 17 25.6919 17ZM18.0377 17.2498C17.9368 17.8972 17.9824 19.4874 18.5381 20.2498L22.3073 25.4806V21.5969L21.615 21.5003L21.7497 20.6738L20.9227 20.5385L21.0574 19.7305L20.2304 19.5963L20.3651 18.7692L19.5381 18.6535L19.6728 17.8271L18.8457 17.6923C18.6045 17.6363 18.1904 17.3329 18.0377 17.2498ZM25.6919 18.8462C25.9368 18.8462 26.1716 18.9436 26.3447 19.1168C26.5178 19.2901 26.6151 19.5249 26.615 19.7698C26.6149 20.0147 26.5175 20.2496 26.3443 20.4227C26.1711 20.5958 25.9362 20.693 25.6913 20.6929C25.57 20.6929 25.45 20.669 25.3379 20.6225C25.2259 20.5761 25.1242 20.508 25.0384 20.4223C24.9527 20.3365 24.8847 20.2347 24.8384 20.1226C24.792 20.0106 24.7682 19.8905 24.7682 19.7692C24.7682 19.648 24.7922 19.5279 24.8386 19.4159C24.8851 19.3039 24.9531 19.2021 25.0389 19.1164C25.1246 19.0307 25.2265 18.9627 25.3385 18.9163C25.4506 18.87 25.5706 18.8461 25.6919 18.8462ZM29.0765 19.4615V23.4806C29.0765 23.4806 30.1854 24.8234 30.8845 25.6732C31.5036 26.4265 32.7399 27.3612 33.9417 26.9618C33.431 25.7631 32.9571 24.8615 32.5571 23.9618C31.2864 22.2098 29.0765 19.4615 29.0765 19.4615ZM18.615 24.3846C18.1553 24.4289 17.9996 24.8806 17.9996 25.7311C17.9996 28.0197 22.3073 30.5385 22.3073 30.5385V28.7883C22.3073 28.7883 21.0765 28.3415 21.0765 26.904C21.0765 26.0929 20.8864 25.5822 20.4611 25.2308C20.3264 25.1194 19.9073 24.9612 19.711 25.096C19.8777 25.3895 20.3534 26.4394 20.0956 26.5963C19.7411 26.8135 18.5116 26.3994 18.615 24.3846ZM25.3842 29.3077H25.9996V29.9231H26.615V30.5385H25.9996V31.1538H25.3842V30.5385H24.7688V29.9231H25.3842V29.3077Z" fill="#F3F3F3"/>
</g>
<rect x="4.1125" y="3.1125" width="43.775" height="43.775" rx="8.8875" stroke="#D0D5DD" stroke-width="0.225"/>
</g>
<path d="M57.0114 31V19.3636H64.8523V21.392H59.4716V24.1648H64.4489V26.1932H59.4716V28.9716H64.875V31H57.0114ZM68.9105 19.3636L71.723 28.2045H71.831L74.6491 19.3636H77.3764L73.3651 31H70.1946L66.1776 19.3636H68.9105ZM78.777 31V19.3636H86.6179V21.392H81.2372V24.1648H86.2145V26.1932H81.2372V28.9716H86.6406V31H78.777ZM88.5739 31V19.3636H93.1648C94.0436 19.3636 94.7936 19.5208 95.4148 19.8352C96.0398 20.1458 96.5152 20.5871 96.8409 21.1591C97.1705 21.7273 97.3352 22.3958 97.3352 23.1648C97.3352 23.9375 97.1686 24.6023 96.8352 25.1591C96.5019 25.7121 96.0189 26.1364 95.3864 26.4318C94.7576 26.7273 93.9962 26.875 93.1023 26.875H90.0284V24.8977H92.7045C93.1742 24.8977 93.5644 24.8333 93.875 24.7045C94.1856 24.5758 94.4167 24.3826 94.5682 24.125C94.7235 23.8674 94.8011 23.5473 94.8011 23.1648C94.8011 22.7784 94.7235 22.4527 94.5682 22.1875C94.4167 21.9223 94.1837 21.7216 93.8693 21.5852C93.5587 21.4451 93.1667 21.375 92.6932 21.375H91.0341V31H88.5739ZM94.858 25.7045L97.75 31H95.0341L92.2045 25.7045H94.858ZM97.9077 19.3636H100.663L103.317 24.375H103.43L106.084 19.3636H108.839L104.595 26.8864V31H102.152V26.8864L97.9077 19.3636ZM118.011 31H113.886V19.3636H118.045C119.216 19.3636 120.223 19.5966 121.068 20.0625C121.913 20.5246 122.563 21.1894 123.017 22.0568C123.475 22.9242 123.705 23.9621 123.705 25.1705C123.705 26.3826 123.475 27.4242 123.017 28.2955C122.563 29.1667 121.909 29.8352 121.057 30.3011C120.208 30.767 119.193 31 118.011 31ZM116.347 28.892H117.909C118.636 28.892 119.248 28.7633 119.744 28.5057C120.244 28.2443 120.619 27.8409 120.869 27.2955C121.123 26.7462 121.25 26.0379 121.25 25.1705C121.25 24.3106 121.123 23.608 120.869 23.0625C120.619 22.517 120.246 22.1155 119.75 21.858C119.254 21.6004 118.642 21.4716 117.915 21.4716H116.347V28.892ZM126.876 31H124.24L128.257 19.3636H131.428L135.439 31H132.803L129.888 22.0227H129.797L126.876 31ZM126.712 26.4261H132.939V28.3466H126.712V26.4261ZM134.97 19.3636H137.726L140.379 24.375H140.493L143.146 19.3636H145.902L141.658 26.8864V31H139.214V26.8864L134.97 19.3636ZM161.216 23.4375H158.727C158.682 23.1155 158.589 22.8295 158.449 22.5795C158.309 22.3258 158.129 22.1098 157.909 21.9318C157.689 21.7538 157.436 21.6174 157.148 21.5227C156.864 21.428 156.555 21.3807 156.222 21.3807C155.619 21.3807 155.095 21.5303 154.648 21.8295C154.201 22.125 153.854 22.5568 153.608 23.125C153.362 23.6894 153.239 24.375 153.239 25.1818C153.239 26.0114 153.362 26.7083 153.608 27.2727C153.858 27.8371 154.206 28.2633 154.653 28.5511C155.1 28.839 155.617 28.983 156.205 28.983C156.534 28.983 156.839 28.9394 157.119 28.8523C157.403 28.7652 157.655 28.6383 157.875 28.4716C158.095 28.3011 158.277 28.0947 158.42 27.8523C158.568 27.6098 158.67 27.3333 158.727 27.0227L161.216 27.0341C161.152 27.5682 160.991 28.0833 160.733 28.5795C160.479 29.072 160.136 29.5133 159.705 29.9034C159.277 30.2898 158.765 30.5966 158.17 30.8239C157.58 31.0473 156.911 31.1591 156.165 31.1591C155.127 31.1591 154.199 30.9242 153.381 30.4545C152.566 29.9848 151.922 29.3049 151.449 28.4148C150.979 27.5246 150.744 26.447 150.744 25.1818C150.744 23.9129 150.983 22.8333 151.46 21.9432C151.938 21.053 152.585 20.375 153.403 19.9091C154.222 19.4394 155.142 19.2045 156.165 19.2045C156.839 19.2045 157.464 19.2992 158.04 19.4886C158.619 19.678 159.133 19.9545 159.58 20.3182C160.027 20.678 160.39 21.1193 160.67 21.642C160.955 22.1648 161.136 22.7633 161.216 23.4375ZM164.767 31H162.131L166.148 19.3636H169.318L173.33 31H170.693L167.778 22.0227H167.688L164.767 31ZM164.602 26.4261H170.83V28.3466H164.602V26.4261ZM174.73 31V19.3636H179.321C180.2 19.3636 180.95 19.5208 181.571 19.8352C182.196 20.1458 182.671 20.5871 182.997 21.1591C183.327 21.7273 183.491 22.3958 183.491 23.1648C183.491 23.9375 183.325 24.6023 182.991 25.1591C182.658 25.7121 182.175 26.1364 181.543 26.4318C180.914 26.7273 180.152 26.875 179.259 26.875H176.185V24.8977H178.861C179.33 24.8977 179.721 24.8333 180.031 24.7045C180.342 24.5758 180.573 24.3826 180.724 24.125C180.88 23.8674 180.957 23.5473 180.957 23.1648C180.957 22.7784 180.88 22.4527 180.724 22.1875C180.573 21.9223 180.34 21.7216 180.026 21.5852C179.715 21.4451 179.323 21.375 178.849 21.375H177.19V31H174.73ZM181.014 25.7045L183.906 31H181.19L178.361 25.7045H181.014ZM185.23 31V19.3636H189.821C190.7 19.3636 191.45 19.5208 192.071 19.8352C192.696 20.1458 193.171 20.5871 193.497 21.1591C193.827 21.7273 193.991 22.3958 193.991 23.1648C193.991 23.9375 193.825 24.6023 193.491 25.1591C193.158 25.7121 192.675 26.1364 192.043 26.4318C191.414 26.7273 190.652 26.875 189.759 26.875H186.685V24.8977H189.361C189.83 24.8977 190.221 24.8333 190.531 24.7045C190.842 24.5758 191.073 24.3826 191.224 24.125C191.38 23.8674 191.457 23.5473 191.457 23.1648C191.457 22.7784 191.38 22.4527 191.224 22.1875C191.073 21.9223 190.84 21.7216 190.526 21.5852C190.215 21.4451 189.823 21.375 189.349 21.375H187.69V31H185.23ZM191.514 25.7045L194.406 31H191.69L188.861 25.7045H191.514ZM194.564 19.3636H197.32L199.973 24.375H200.087L202.74 19.3636H205.496L201.251 26.8864V31H198.808V26.8864L194.564 19.3636Z" fill="#2B2B2A"/>
<defs>
<filter id="filter0_dd_1244_128808" x="0.625" y="0.75" width="50.75" height="50.75" filterUnits="userSpaceOnUse" color-interpolation-filters="sRGB">
<feFlood flood-opacity="0" result="BackgroundImageFix"/>
<feColorMatrix in="SourceAlpha" type="matrix" values="0 0 0 0 0 0 0 0 0 0 0 0 0 0 0 0 0 0 127 0" result="hardAlpha"/>
<feOffset dy="1.125"/>
<feGaussianBlur stdDeviation="1.125"/>
<feColorMatrix type="matrix" values="0 0 0 0 0.0627451 0 0 0 0 0.0941176 0 0 0 0 0.156863 0 0 0 0.06 0"/>
<feBlend mode="normal" in2="BackgroundImageFix" result="effect1_dropShadow_1244_128808"/>
<feColorMatrix in="SourceAlpha" type="matrix" values="0 0 0 0 0 0 0 0 0 0 0 0 0 0 0 0 0 0 127 0" result="hardAlpha"/>
<feOffset dy="1.125"/>
<feGaussianBlur stdDeviation="1.6875"/>
<feColorMatrix type="matrix" values="0 0 0 0 0.0627451 0 0 0 0 0.0941176 0 0 0 0 0.156863 0 0 0 0.1 0"/>
<feBlend mode="normal" in2="effect1_dropShadow_1244_128808" result="effect2_dropShadow_1244_128808"/>
<feBlend mode="normal" in="SourceGraphic" in2="effect2_dropShadow_1244_128808" result="shape"/>
</filter>
<filter id="filter1_dd_1244_128808" x="6.625" y="6.75" width="38.75" height="38.75" filterUnits="userSpaceOnUse" color-interpolation-filters="sRGB">
<feFlood flood-opacity="0" result="BackgroundImageFix"/>
<feColorMatrix in="SourceAlpha" type="matrix" values="0 0 0 0 0 0 0 0 0 0 0 0 0 0 0 0 0 0 127 0" result="hardAlpha"/>
<feOffset dy="1.125"/>
<feGaussianBlur stdDeviation="1.125"/>
<feColorMatrix type="matrix" values="0 0 0 0 0.0627451 0 0 0 0 0.0941176 0 0 0 0 0.156863 0 0 0 0.06 0"/>
<feBlend mode="normal" in2="BackgroundImageFix" result="effect1_dropShadow_1244_128808"/>
<feColorMatrix in="SourceAlpha" type="matrix" values="0 0 0 0 0 0 0 0 0 0 0 0 0 0 0 0 0 0 127 0" result="hardAlpha"/>
<feOffset dy="1.125"/>
<feGaussianBlur stdDeviation="1.6875"/>
<feColorMatrix type="matrix" values="0 0 0 0 0.0627451 0 0 0 0 0.0941176 0 0 0 0 0.156863 0 0 0 0.1 0"/>
<feBlend mode="normal" in2="effect1_dropShadow_1244_128808" result="effect2_dropShadow_1244_128808"/>
<feBlend mode="normal" in="SourceGraphic" in2="effect2_dropShadow_1244_128808" result="shape"/>
</filter>
<linearGradient id="paint0_linear_1244_128808" x1="26" y1="3" x2="26" y2="47" gradientUnits="userSpaceOnUse">
<stop stop-color="white"/>
<stop offset="1" stop-color="#F5F5F5"/>
</linearGradient>
<linearGradient id="paint1_linear_1244_128808" x1="18" y1="41" x2="34" y2="9" gradientUnits="userSpaceOnUse">
<stop stop-color="#6C6E60"/>
<stop offset="1" stop-color="#40413B"/>
</linearGradient>
<clipPath id="clip0_1244_128808">
<rect width="16" height="16" fill="white" transform="translate(18 17)"/>
</clipPath>
</defs>
</svg>
